<?xml version="1.0" encoding="UTF-8"?>
<!DOCTYPE svg PUBLIC "-//W3C//DTD SVG 1.1//EN" "http://www.w3.org/Graphics/SVG/1.1/DTD/svg11.dtd">
<svg xmlns="http://www.w3.org/2000/svg" version="1.1" width="500px" height="500px" style="shape-rendering:geometricPrecision; text-rendering:geometricPrecision; image-rendering:optimizeQuality; fill-rule:evenodd; clip-rule:evenodd" xmlns:xlink="http://www.w3.org/1999/xlink">
<g><path style="opacity:1" fill="#fefefe" d="M -0.5,-0.5 C 166.167,-0.5 332.833,-0.5 499.5,-0.5C 499.5,166.167 499.5,332.833 499.5,499.5C 332.833,499.5 166.167,499.5 -0.5,499.5C -0.5,332.833 -0.5,166.167 -0.5,-0.5 Z"/></g>
<g><path style="opacity:1" fill="#272727" d="M 236.5,49.5 C 319.805,47.887 382.639,82.5536 425,153.5C 447.252,194.686 454.419,238.353 446.5,284.5C 423.5,284.5 400.5,284.5 377.5,284.5C 364.905,248.383 351.905,212.383 338.5,176.5C 320.179,175.5 301.845,175.167 283.5,175.5C 266.303,223.091 249.303,270.757 232.5,318.5C 248.167,318.5 263.833,318.5 279.5,318.5C 281.164,311.85 282.831,305.183 284.5,298.5C 301.513,298.167 318.513,298.501 335.5,299.5C 337.707,305.453 339.707,311.453 341.5,317.5C 373.16,318.5 404.826,318.833 436.5,318.5C 408.359,389.456 356.692,432.29 281.5,447C 209.806,456.439 149.306,434.939 100,382.5C 54.1813,327.213 39.848,264.546 57,194.5C 81.9609,118.871 133.128,71.7046 210.5,53C 219.354,52.1446 228.021,50.9779 236.5,49.5 Z"/></g>
<g><path style="opacity:1" fill="#fefefe" d="M 122.5,175.5 C 157.502,175.333 192.502,175.5 227.5,176C 243.528,179.823 253.528,189.656 257.5,205.5C 253.336,216.495 249.17,227.495 245,238.5C 241.364,240.734 237.531,242.568 233.5,244C 236.022,245.341 238.689,246.174 241.5,246.5C 233.775,270.341 225.441,294.007 216.5,317.5C 185.174,318.5 153.84,318.833 122.5,318.5C 122.5,270.833 122.5,223.167 122.5,175.5 Z"/></g>
<g><path style="opacity:1" fill="#282828" d="M 168.5,206.5 C 179.838,206.333 191.172,206.5 202.5,207C 208.137,208.798 210.803,212.632 210.5,218.5C 210.722,223.558 208.722,227.391 204.5,230C 192.505,230.5 180.505,230.667 168.5,230.5C 168.5,222.5 168.5,214.5 168.5,206.5 Z"/></g>
<g><path style="opacity:1" fill="#2d2d2d" d="M 309.5,215.5 C 310.931,215.881 311.764,216.881 312,218.5C 316.814,234.437 321.314,250.437 325.5,266.5C 315.5,266.5 305.5,266.5 295.5,266.5C 299.755,249.4 304.422,232.4 309.5,215.5 Z"/></g>
<g><path style="opacity:1" fill="#2a2a2a" d="M 168.5,260.5 C 180.838,260.333 193.171,260.5 205.5,261C 211.737,262.297 214.404,266.131 213.5,272.5C 214.227,278.888 211.56,283.054 205.5,285C 193.171,285.5 180.838,285.667 168.5,285.5C 168.5,277.167 168.5,268.833 168.5,260.5 Z"/></g>
<g><path style="opacity:1" fill="#f6f6f6" d="M 154.5,335.5 C 157.518,335.335 160.518,335.502 163.5,336C 166.167,338.667 166.167,341.333 163.5,344C 168.368,346.477 168.701,349.477 164.5,353C 161.183,353.498 157.85,353.665 154.5,353.5C 154.5,347.5 154.5,341.5 154.5,335.5 Z"/></g>
<g><path style="opacity:1" fill="#f7f7f7" d="M 170.5,335.5 C 173.85,335.335 177.183,335.502 180.5,336C 183.296,339.741 182.963,343.241 179.5,346.5C 181.167,348.5 182.833,350.5 184.5,352.5C 182.926,353.631 181.259,353.798 179.5,353C 178.12,351.075 176.62,349.241 175,347.5C 174.505,349.473 174.338,351.473 174.5,353.5C 173.167,353.5 171.833,353.5 170.5,353.5C 170.5,347.5 170.5,341.5 170.5,335.5 Z"/></g>
<g><path style="opacity:1" fill="#fcfcfc" d="M 187.5,335.5 C 188.833,335.5 190.167,335.5 191.5,335.5C 191.5,341.5 191.5,347.5 191.5,353.5C 190.167,353.5 188.833,353.5 187.5,353.5C 187.5,347.5 187.5,341.5 187.5,335.5 Z"/></g>
<g><path style="opacity:1" fill="#f4f4f4" d="M 199.5,335.5 C 199.5,340.5 199.5,345.5 199.5,350.5C 201.5,350.5 203.5,350.5 205.5,350.5C 205.5,351.5 205.5,352.5 205.5,353.5C 202.167,353.5 198.833,353.5 195.5,353.5C 195.5,347.5 195.5,341.5 195.5,335.5C 196.833,335.5 198.167,335.5 199.5,335.5 Z"/></g>
<g><path style="opacity:1" fill="#a0a0a0" d="M 199.5,335.5 C 200.486,339.97 200.819,344.637 200.5,349.5C 202.5,349.5 204.5,349.5 206.5,349.5C 206.768,351.099 206.434,352.432 205.5,353.5C 205.5,352.5 205.5,351.5 205.5,350.5C 203.5,350.5 201.5,350.5 199.5,350.5C 199.5,345.5 199.5,340.5 199.5,335.5 Z"/></g>
<g><path style="opacity:1" fill="#fbfbfb" d="M 213.5,335.5 C 213.5,340.5 213.5,345.5 213.5,350.5C 215.5,350.5 217.5,350.5 219.5,350.5C 219.5,351.5 219.5,352.5 219.5,353.5C 216.167,353.5 212.833,353.5 209.5,353.5C 209.5,347.5 209.5,341.5 209.5,335.5C 210.833,335.5 212.167,335.5 213.5,335.5 Z"/></g>
<g><path style="opacity:1" fill="#717171" d="M 213.5,335.5 C 214.486,339.97 214.819,344.637 214.5,349.5C 216.5,349.5 218.5,349.5 220.5,349.5C 220.768,351.099 220.434,352.432 219.5,353.5C 219.5,352.5 219.5,351.5 219.5,350.5C 217.5,350.5 215.5,350.5 213.5,350.5C 213.5,345.5 213.5,340.5 213.5,335.5 Z"/></g>
<g><path style="opacity:1" fill="#fbfbfb" d="M 223.5,335.5 C 224.833,335.5 226.167,335.5 227.5,335.5C 227.5,341.5 227.5,347.5 227.5,353.5C 226.167,353.5 224.833,353.5 223.5,353.5C 223.5,347.5 223.5,341.5 223.5,335.5 Z"/></g>
<g><path style="opacity:1" fill="#f2f2f2" d="M 236.5,335.5 C 238.288,335.215 239.955,335.548 241.5,336.5C 243.935,341.976 246.268,347.476 248.5,353C 246.866,353.494 245.199,353.66 243.5,353.5C 243.763,350.266 242.263,348.932 239,349.5C 236.305,350.255 233.972,351.589 232,353.5C 231.167,353.333 230.333,353.167 229.5,353C 232.325,347.359 234.658,341.526 236.5,335.5 Z"/></g>
<g><path style="opacity:1" fill="#f7f7f7" d="M 250.5,335.5 C 252.288,335.215 253.955,335.548 255.5,336.5C 257.333,339.5 259.167,342.5 261,345.5C 261.498,342.183 261.665,338.85 261.5,335.5C 262.833,335.5 264.167,335.5 265.5,335.5C 265.5,341.5 265.5,347.5 265.5,353.5C 264.127,353.657 262.793,353.49 261.5,353C 259.457,349.747 257.29,346.58 255,343.5C 254.502,346.817 254.335,350.15 254.5,353.5C 253.167,353.5 251.833,353.5 250.5,353.5C 250.5,347.5 250.5,341.5 250.5,335.5 Z"/></g>
<g><path style="opacity:1" fill="#ececec" d="M 276.5,334.5 C 279.206,334.575 281.873,334.908 284.5,335.5C 284.67,336.822 284.337,337.989 283.5,339C 275.035,338.432 272.702,341.765 276.5,349C 278.769,349.758 280.936,349.591 283,348.5C 284.365,349.593 284.699,350.926 284,352.5C 273.799,354.966 269.132,350.966 270,340.5C 271.914,338.144 274.081,336.144 276.5,334.5 Z"/></g>
<g><path style="opacity:1" fill="#e7e7e7" d="M 287.5,335.5 C 291.167,335.5 294.833,335.5 298.5,335.5C 298.5,336.833 298.5,338.167 298.5,339.5C 296.5,339.5 294.5,339.5 292.5,339.5C 292.5,340.5 292.5,341.5 292.5,342.5C 294.5,342.5 296.5,342.5 298.5,342.5C 298.5,343.833 298.5,345.167 298.5,346.5C 296.5,346.5 294.5,346.5 292.5,346.5C 292.5,347.5 292.5,348.5 292.5,349.5C 294.5,349.5 296.5,349.5 298.5,349.5C 298.5,350.833 298.5,352.167 298.5,353.5C 294.833,353.5 291.167,353.5 287.5,353.5C 287.5,347.5 287.5,341.5 287.5,335.5 Z"/></g>
<g><path style="opacity:1" fill="#eeeeee" d="M 314.5,335.5 C 316.288,335.215 317.955,335.548 319.5,336.5C 321.935,341.976 324.268,347.476 326.5,353C 324.866,353.494 323.199,353.66 321.5,353.5C 321.5,352.5 321.5,351.5 321.5,350.5C 316.377,350.21 311.711,351.043 307.5,353C 310.325,347.359 312.658,341.526 314.5,335.5 Z"/></g>
<g><path style="opacity:1" fill="#f6f6f6" d="M 328.5,335.5 C 338.934,333.934 343.434,338.268 342,348.5C 338.614,352.92 334.114,354.586 328.5,353.5C 328.5,347.5 328.5,341.5 328.5,335.5 Z"/></g>
<g><path style="opacity:1" fill="#ececec" d="M 350.5,334.5 C 353.471,334.435 356.138,335.269 358.5,337C 358.002,338.158 357.169,338.991 356,339.5C 354.56,338.852 353.06,338.519 351.5,338.5C 351.351,339.552 351.517,340.552 352,341.5C 357.4,342.882 359.4,346.216 358,351.5C 356.352,353.028 354.352,353.695 352,353.5C 349.53,353.66 347.364,352.993 345.5,351.5C 345.865,350.098 346.699,349.098 348,348.5C 350.199,349.645 352.365,349.645 354.5,348.5C 351.948,346.631 349.448,344.631 347,342.5C 346.333,341.167 346.333,339.833 347,338.5C 348.376,337.295 349.542,335.962 350.5,334.5 Z"/></g>
<g><path style="opacity:1" fill="#363636" d="M 158.5,338.5 C 161.861,339.203 162.194,340.537 159.5,342.5C 158.571,341.311 158.238,339.978 158.5,338.5 Z"/></g>
<g><path style="opacity:1" fill="#404040" d="M 174.5,338.5 C 178.161,338.35 179.161,339.85 177.5,343C 176.552,343.483 175.552,343.649 174.5,343.5C 174.5,341.833 174.5,340.167 174.5,338.5 Z"/></g>
<g><path style="opacity:1" fill="#2f2f2f" d="M 332.5,339.5 C 336.295,338.959 338.295,340.625 338.5,344.5C 337.699,347.637 335.699,349.304 332.5,349.5C 332.5,346.167 332.5,342.833 332.5,339.5 Z"/></g>
<g><path style="opacity:1" fill="#565656" d="M 238.5,341.5 C 239.931,342.78 240.598,344.447 240.5,346.5C 239.5,346.5 238.5,346.5 237.5,346.5C 237.629,344.784 237.962,343.117 238.5,341.5 Z"/></g>
<g><path style="opacity:1" fill="#555555" d="M 316.5,341.5 C 317.931,342.78 318.598,344.447 318.5,346.5C 317.5,346.5 316.5,346.5 315.5,346.5C 315.629,344.784 315.962,343.117 316.5,341.5 Z"/></g>
<g><path style="opacity:1" fill="#323232" d="M 158.5,346.5 C 159.833,346.5 161.167,346.5 162.5,346.5C 162.833,349.5 161.5,350.833 158.5,350.5C 158.5,349.167 158.5,347.833 158.5,346.5 Z"/></g>
</svg>
